<svg width="49" height="49" viewBox="0 0 49 49" fill="none" xmlns="http://www.w3.org/2000/svg">
<g clip-path="url(#clip0_3_1955)">
<path d="M24.5447 0.907715C11.3103 0.907715 0.544678 11.6743 0.544678 24.9077C0.544678 38.1411 11.3103 48.9077 24.5447 48.9077C37.7791 48.9077 48.5447 38.1411 48.5447 24.9077C48.5447 11.6743 37.7791 0.907715 24.5447 0.907715ZM34.0857 25.7486L20.0857 34.7486C19.9217 34.855 19.7322 34.9077 19.5447 34.9077C19.3806 34.9077 19.2146 34.8667 19.0662 34.7857C18.7439 34.6099 18.5447 34.2739 18.5447 33.9077V15.9077C18.5447 15.5415 18.7439 15.2055 19.0662 15.0297C19.3826 14.8559 19.7791 14.8666 20.0857 15.0669L34.0857 24.0669C34.3709 24.2504 34.5447 24.5679 34.5447 24.9077C34.5447 25.2476 34.3709 25.5649 34.0857 25.7486Z" fill="white"/>
</g>
<defs>
<clipPath id="clip0_3_1955">
<rect width="48" height="48" fill="white" transform="translate(0.544678 0.907715)"/>
</clipPath>
</defs>
</svg>
