<svg width="25" height="24" viewBox="0 0 25 24" fill="none" xmlns="http://www.w3.org/2000/svg">
<path d="M13.0457 2.00123C13.7754 1.99843 14.5051 2.00576 15.2346 2.02323L15.4286 2.03023C15.6526 2.03823 15.8736 2.04823 16.1406 2.06023C17.2046 2.11023 17.9306 2.27822 18.5675 2.52521C19.2275 2.7792 19.7835 3.12319 20.3395 3.67917C20.8478 4.17876 21.2413 4.78308 21.4924 5.45011C21.7394 6.08709 21.9074 6.81407 21.9574 7.87803C21.9694 8.14402 21.9794 8.36601 21.9874 8.59001L21.9934 8.784C22.0112 9.51317 22.0188 10.2425 22.0164 10.9719L22.0174 11.7179V13.0279C22.0199 13.7576 22.0122 14.4873 21.9944 15.2168L21.9884 15.4108C21.9804 15.6348 21.9704 15.8558 21.9584 16.1227C21.9084 17.1867 21.7384 17.9127 21.4924 18.5497C21.2421 19.2174 20.8486 19.8222 20.3395 20.3216C19.8395 20.8299 19.2348 21.2233 18.5675 21.4746C17.9306 21.7216 17.2046 21.8896 16.1406 21.9396C15.8736 21.9516 15.6526 21.9616 15.4286 21.9696L15.2346 21.9756C14.5051 21.9933 13.7754 22.001 13.0457 21.9986L12.2997 21.9996H10.9908C10.2611 22.002 9.53136 21.9943 8.80186 21.9766L8.60787 21.9706C8.37049 21.9619 8.13316 21.9519 7.89589 21.9406C6.83193 21.8906 6.10595 21.7206 5.46798 21.4746C4.80068 21.2239 4.19626 20.8304 3.69704 20.3216C3.1881 19.8219 2.79429 19.2172 2.54308 18.5497C2.29608 17.9127 2.12809 17.1867 2.07809 16.1227C2.06696 15.8855 2.05696 15.6481 2.04809 15.4108L2.04309 15.2168C2.02466 14.4873 2.01632 13.7576 2.01809 13.0279V10.9719C2.0153 10.2426 2.02264 9.51317 2.04009 8.784L2.04709 8.59001C2.05509 8.36601 2.06509 8.14402 2.07709 7.87803C2.12709 6.81307 2.29508 6.08809 2.54208 5.45011C2.79344 4.78276 3.18802 4.1786 3.69804 3.68017C4.19691 3.17094 4.80096 2.77678 5.46798 2.52521C6.10595 2.27822 6.83093 2.11023 7.89589 2.06023L8.60787 2.03023L8.80186 2.02523C9.53102 2.0068 10.2604 1.99847 10.9898 2.00023L13.0457 2.00123ZM12.0178 7.00106C11.3553 6.99169 10.6976 7.11408 10.0828 7.36112C9.46804 7.60815 8.90851 7.97491 8.43672 8.44007C7.96494 8.90523 7.5903 9.45951 7.3346 10.0707C7.0789 10.6819 6.94722 11.3379 6.94722 12.0004C6.94722 12.6629 7.0789 13.3189 7.3346 13.9301C7.5903 14.5413 7.96494 15.0956 8.43672 15.5607C8.90851 16.0259 9.46804 16.3926 10.0828 16.6397C10.6976 16.8867 11.3553 17.0091 12.0178 16.9997C13.3438 16.9997 14.6155 16.473 15.5532 15.5353C16.4908 14.5977 17.0176 13.3259 17.0176 11.9999C17.0176 10.6739 16.4908 9.40213 15.5532 8.46448C14.6155 7.52683 13.3438 7.00106 12.0178 7.00106ZM12.0178 9.00099C12.4162 8.99365 12.8122 9.06579 13.1825 9.21319C13.5528 9.3606 13.89 9.58031 14.1745 9.85951C14.4589 10.1387 14.6848 10.4718 14.8391 10.8393C14.9934 11.2068 15.0729 11.6013 15.0729 11.9999C15.073 12.3984 14.9936 12.793 14.8395 13.1606C14.6853 13.5281 14.4595 13.8613 14.1752 14.1406C13.8908 14.4198 13.5537 14.6397 13.1834 14.7872C12.8132 14.9347 12.4172 15.007 12.0188 14.9998C11.2231 14.9998 10.4601 14.6837 9.89751 14.1211C9.33492 13.5585 9.01886 12.7955 9.01886 11.9999C9.01886 11.2043 9.33492 10.4412 9.89751 9.87864C10.4601 9.31605 11.2231 8.99999 12.0188 8.99999L12.0178 9.00099ZM17.2676 5.50111C16.945 5.51402 16.6399 5.65126 16.4162 5.88407C16.1925 6.11688 16.0676 6.42721 16.0676 6.75007C16.0676 7.07292 16.1925 7.38326 16.4162 7.61607C16.6399 7.84888 16.945 7.98611 17.2676 7.99903C17.5991 7.99903 17.917 7.86733 18.1514 7.63292C18.3858 7.39851 18.5175 7.08058 18.5175 6.74907C18.5175 6.41756 18.3858 6.09963 18.1514 5.86522C17.917 5.6308 17.5991 5.49911 17.2676 5.49911V5.50111Z" fill="white"/>
</svg>
