<svg width="33" height="33" viewBox="0 0 33 33" fill="none" xmlns="http://www.w3.org/2000/svg">
<path d="M17.9154 3.28265C18.8883 3.27891 19.8613 3.28869 20.834 3.31198L21.0926 3.32131C21.3913 3.33198 21.6859 3.34531 22.0419 3.36131C23.4605 3.42797 24.4285 3.65197 25.2778 3.98129C26.1578 4.31994 26.8991 4.7786 27.6404 5.5199C28.3182 6.18602 28.8428 6.99178 29.1777 7.88116C29.507 8.73046 29.731 9.69976 29.7977 11.1184C29.8137 11.473 29.827 11.769 29.8377 12.0677L29.8457 12.3263C29.8693 13.2986 29.8796 14.2711 29.8763 15.2436L29.8777 16.2382V17.9848C29.8809 18.9578 29.8707 19.9307 29.847 20.9034L29.839 21.162C29.8283 21.4607 29.815 21.7553 29.799 22.1113C29.7323 23.53 29.5057 24.4979 29.1777 25.3472C28.8439 26.2375 28.3192 27.044 27.6404 27.7098C26.9737 28.3876 26.1675 28.9121 25.2778 29.2471C24.4285 29.5764 23.4605 29.8004 22.0419 29.8671C21.6859 29.8831 21.3913 29.8964 21.0926 29.9071L20.834 29.9151C19.8613 29.9388 18.8883 29.949 17.9154 29.9457L16.9208 29.9471H15.1755C14.2025 29.9504 13.2296 29.9401 12.2569 29.9164L11.9983 29.9084C11.6817 29.8969 11.3653 29.8836 11.049 29.8684C9.63034 29.8017 8.66237 29.5751 7.81173 29.2471C6.92201 28.9129 6.11611 28.3882 5.45048 27.7098C4.7719 27.0435 4.24682 26.2373 3.91187 25.3472C3.58254 24.4979 3.35855 23.53 3.29189 22.1113C3.27704 21.795 3.26371 21.4785 3.25189 21.162L3.24522 20.9034C3.22064 19.9307 3.20953 18.9578 3.21189 17.9848V15.2436C3.20817 14.2711 3.21795 13.2986 3.24122 12.3263L3.25056 12.0677C3.26122 11.769 3.27455 11.473 3.29055 11.1184C3.35722 9.69843 3.58121 8.73179 3.91053 7.88116C4.24568 6.99135 4.77179 6.18581 5.45181 5.52124C6.11698 4.84226 6.92238 4.31671 7.81173 3.98129C8.66237 3.65197 9.629 3.42797 11.049 3.36131L11.9983 3.32131L12.2569 3.31465C13.2291 3.29008 14.2016 3.27896 15.1742 3.28131L17.9154 3.28265ZM16.5448 9.94909C15.6615 9.93659 14.7845 10.0998 13.9648 10.4292C13.1451 10.7585 12.3991 11.2475 11.7701 11.8678C11.141 12.488 10.6415 13.227 10.3006 14.042C9.95963 14.8569 9.78405 15.7315 9.78405 16.6149C9.78405 17.4982 9.95963 18.3728 10.3006 19.1878C10.6415 20.0027 11.141 20.7417 11.7701 21.362C12.3991 21.9822 13.1451 22.4712 13.9648 22.8006C14.7845 23.1299 15.6615 23.2931 16.5448 23.2806C18.3128 23.2806 20.0085 22.5783 21.2587 21.3281C22.5089 20.0779 23.2112 18.3822 23.2112 16.6142C23.2112 14.8461 22.5089 13.1505 21.2587 11.9003C20.0085 10.6501 18.3128 9.94909 16.5448 9.94909ZM16.5448 12.6157C17.0761 12.6059 17.604 12.7021 18.0978 12.8986C18.5915 13.0951 19.0411 13.3881 19.4204 13.7603C19.7996 14.1326 20.1009 14.5767 20.3066 15.0667C20.5123 15.5567 20.6182 16.0828 20.6183 16.6142C20.6184 17.1456 20.5126 17.6717 20.3071 18.1618C20.1016 18.6518 19.8004 19.096 19.4213 19.4684C19.0422 19.8408 18.5927 20.1339 18.099 20.3306C17.6053 20.5273 17.0774 20.6237 16.5461 20.6141C15.4853 20.6141 14.4679 20.1926 13.7178 19.4425C12.9677 18.6924 12.5462 17.675 12.5462 16.6142C12.5462 15.5534 12.9677 14.536 13.7178 13.7859C14.4679 13.0357 15.4853 12.6143 16.5461 12.6143L16.5448 12.6157ZM23.5445 7.94915C23.1144 7.96637 22.7076 8.14935 22.4094 8.45976C22.1111 8.77018 21.9446 9.18396 21.9446 9.61443C21.9446 10.0449 22.1111 10.4587 22.4094 10.7691C22.7076 11.0795 23.1144 11.2625 23.5445 11.2797C23.9865 11.2797 24.4105 11.1041 24.723 10.7916C25.0356 10.479 25.2111 10.0551 25.2111 9.6131C25.2111 9.17108 25.0356 8.74718 24.723 8.43463C24.4105 8.12208 23.9865 7.94649 23.5445 7.94649V7.94915Z" fill="#FF6514"/>
</svg>
