<svg width="26" height="27" viewBox="0 0 26 27" fill="none" xmlns="http://www.w3.org/2000/svg">
<path d="M5.76215 16.0743L4.85712 19.5308L1.54928 19.6024C0.560727 17.7265 0 15.5803 0 13.2996C0 11.0942 0.524266 9.01439 1.45356 7.18311H1.45427L4.39918 7.73547L5.68923 10.7302C5.41922 11.5355 5.27206 12.4 5.27206 13.2996C5.27216 14.2759 5.44502 15.2113 5.76215 16.0743Z" fill="#FF6514"/>
<path d="M25.7728 10.8149C25.9221 11.6195 26 12.4504 26 13.2995C26 14.2517 25.9021 15.1805 25.7157 16.0765C25.0829 19.1252 23.4293 21.7874 21.1386 23.6713L21.1379 23.6705L17.4286 23.4769L16.9036 20.1241C18.4236 19.2122 19.6115 17.785 20.2372 16.0765H13.2858V10.8149H20.3386H25.7728Z" fill="#FF6514"/>
<path d="M21.1379 23.6707L21.1386 23.6715C18.9108 25.5035 16.0808 26.5996 13.0001 26.5996C8.04938 26.5996 3.74511 23.7687 1.54938 19.6026L5.76224 16.0745C6.86008 19.072 9.68651 21.2059 13.0001 21.2059C14.4244 21.2059 15.7587 20.812 16.9036 20.1243L21.1379 23.6707Z" fill="#FF6514"/>
<path d="M21.2978 3.06188L17.0864 6.58927C15.9014 5.83148 14.5007 5.39373 13 5.39373C9.61141 5.39373 6.73211 7.62546 5.68927 10.7305L1.45426 7.1834H1.45355C3.61714 2.91574 7.97569 0 13 0C16.1543 0 19.0464 1.14951 21.2978 3.06188Z" fill="#FF6514"/>
</svg>
