<svg width="33" height="33" viewBox="0 0 33 33" fill="none" xmlns="http://www.w3.org/2000/svg">
<path d="M10.1101 7.28128C10.1097 7.98853 9.82842 8.66666 9.32808 9.16651C8.82773 9.66636 8.14931 9.94697 7.44207 9.94661C6.73482 9.94626 6.05669 9.66497 5.55684 9.16462C5.05699 8.66428 4.77638 7.98586 4.77673 7.27861C4.77709 6.57137 5.05838 5.89323 5.55873 5.39339C6.05907 4.89354 6.73749 4.61293 7.44473 4.61328C8.15198 4.61364 8.83011 4.89493 9.32996 5.39527C9.82981 5.89562 10.1104 6.57404 10.1101 7.28128ZM10.1901 11.9213H4.85673V28.6146H10.1901V11.9213ZM18.6167 11.9213H13.3101V28.6146H18.5634V19.8546C18.5634 14.9746 24.9234 14.5213 24.9234 19.8546V28.6146H30.1901V18.0413C30.1901 9.81461 20.7767 10.1213 18.5634 14.1613L18.6167 11.9213Z" fill="#FF6514"/>
</svg>
