<svg width="25" height="24" viewBox="0 0 25 24" fill="none" xmlns="http://www.w3.org/2000/svg">
<path d="M7.69171 5.00002C7.69145 5.53046 7.48048 6.03906 7.10522 6.41394C6.72996 6.78883 6.22114 6.99929 5.69071 6.99902C5.16028 6.99876 4.65168 6.78779 4.27679 6.41253C3.90191 6.03727 3.69145 5.52846 3.69171 4.99802C3.69198 4.46759 3.90294 3.95899 4.27821 3.5841C4.65347 3.20922 5.16228 2.99876 5.69271 2.99902C6.22314 2.99929 6.73175 3.21026 7.10663 3.58552C7.48152 3.96078 7.69198 4.46959 7.69171 5.00002ZM7.75171 8.48002H3.75171V21H7.75171V8.48002ZM14.0717 8.48002H10.0917V21H14.0317V14.43C14.0317 10.77 18.8017 10.43 18.8017 14.43V21H22.7517V13.07C22.7517 6.90002 15.6917 7.13002 14.0317 10.16L14.0717 8.48002Z" fill="white"/>
</svg>
