<svg width="11" height="15" viewBox="0 0 11 15" fill="none" xmlns="http://www.w3.org/2000/svg">
<path d="M5.54467 9.18816C6.9234 9.18816 8.04464 7.93235 8.04464 6.38814C8.04464 4.84393 6.9234 3.58812 5.54467 3.58812C4.16593 3.58812 3.04469 4.84393 3.04469 6.38814C3.04469 7.93235 4.16593 9.18816 5.54467 9.18816ZM5.54467 4.98813C6.23403 4.98813 6.79465 5.61603 6.79465 6.38814C6.79465 7.16024 6.23403 7.78815 5.54467 7.78815C4.8553 7.78815 4.29468 7.16024 4.29468 6.38814C4.29468 5.61603 4.8553 4.98813 5.54467 4.98813ZM5.18218 14.658C5.28796 14.7426 5.41469 14.7881 5.54468 14.7881C5.67466 14.7881 5.8014 14.7426 5.90717 14.658C6.09717 14.5075 10.5627 10.8962 10.5446 6.38813C10.5446 3.30041 8.30152 0.788086 5.54468 0.788086C2.78783 0.788086 0.544733 3.30041 0.544733 6.38463C0.526608 10.8962 4.99218 14.5075 5.18218 14.658ZM5.54468 2.1881C7.61278 2.1881 9.29464 4.07181 9.29464 6.39163C9.30776 9.49826 6.55217 12.2878 5.54468 13.2027C4.53781 12.2871 1.78159 9.49686 1.79472 6.38813C1.79472 4.07181 3.47658 2.1881 5.54468 2.1881ZM5.54467 9.18816C6.9234 9.18816 8.04464 7.93235 8.04464 6.38814C8.04464 4.84393 6.9234 3.58812 5.54467 3.58812C4.16593 3.58812 3.04469 4.84393 3.04469 6.38814C3.04469 7.93235 4.16593 9.18816 5.54467 9.18816ZM5.54467 4.98813C6.23403 4.98813 6.79465 5.61603 6.79465 6.38814C6.79465 7.16024 6.23403 7.78815 5.54467 7.78815C4.8553 7.78815 4.29468 7.16024 4.29468 6.38814C4.29468 5.61603 4.8553 4.98813 5.54467 4.98813ZM5.18218 14.658C5.28796 14.7426 5.41469 14.7881 5.54468 14.7881C5.67466 14.7881 5.8014 14.7426 5.90717 14.658C6.09717 14.5075 10.5627 10.8962 10.5446 6.38813C10.5446 3.30041 8.30152 0.788086 5.54468 0.788086C2.78783 0.788086 0.544733 3.30041 0.544733 6.38463C0.526608 10.8962 4.99218 14.5075 5.18218 14.658ZM5.54468 2.1881C7.61278 2.1881 9.29464 4.07181 9.29464 6.39163C9.30776 9.49826 6.55217 12.2878 5.54468 13.2027C4.53781 12.2871 1.78159 9.49686 1.79472 6.38813C1.79472 4.07181 3.47658 2.1881 5.54468 2.1881Z" fill="#FF6514"/>
<path d="M5.54467 9.18816C6.9234 9.18816 8.04464 7.93235 8.04464 6.38814C8.04464 4.84393 6.9234 3.58812 5.54467 3.58812C4.16593 3.58812 3.04469 4.84393 3.04469 6.38814C3.04469 7.93235 4.16593 9.18816 5.54467 9.18816ZM5.54467 4.98813C6.23403 4.98813 6.79465 5.61603 6.79465 6.38814C6.79465 7.16024 6.23403 7.78815 5.54467 7.78815C4.8553 7.78815 4.29468 7.16024 4.29468 6.38814C4.29468 5.61603 4.8553 4.98813 5.54467 4.98813ZM5.18218 14.658C5.28796 14.7426 5.41469 14.7881 5.54468 14.7881C5.67466 14.7881 5.8014 14.7426 5.90717 14.658C6.09717 14.5075 10.5627 10.8962 10.5446 6.38813C10.5446 3.30041 8.30152 0.788086 5.54468 0.788086C2.78783 0.788086 0.544733 3.30041 0.544733 6.38463C0.526608 10.8962 4.99218 14.5075 5.18218 14.658ZM5.54468 2.1881C7.61278 2.1881 9.29464 4.07181 9.29464 6.39163C9.30776 9.49826 6.55217 12.2878 5.54468 13.2027C4.53781 12.2871 1.78159 9.49686 1.79472 6.38813C1.79472 4.07181 3.47658 2.1881 5.54468 2.1881ZM5.54467 9.18816C6.9234 9.18816 8.04464 7.93235 8.04464 6.38814C8.04464 4.84393 6.9234 3.58812 5.54467 3.58812C4.16593 3.58812 3.04469 4.84393 3.04469 6.38814C3.04469 7.93235 4.16593 9.18816 5.54467 9.18816ZM5.54467 4.98813C6.23403 4.98813 6.79465 5.61603 6.79465 6.38814C6.79465 7.16024 6.23403 7.78815 5.54467 7.78815C4.8553 7.78815 4.29468 7.16024 4.29468 6.38814C4.29468 5.61603 4.8553 4.98813 5.54467 4.98813ZM5.18218 14.658C5.28796 14.7426 5.41469 14.7881 5.54468 14.7881C5.67466 14.7881 5.8014 14.7426 5.90717 14.658C6.09717 14.5075 10.5627 10.8962 10.5446 6.38813C10.5446 3.30041 8.30152 0.788086 5.54468 0.788086C2.78783 0.788086 0.544733 3.30041 0.544733 6.38463C0.526608 10.8962 4.99218 14.5075 5.18218 14.658ZM5.54468 2.1881C7.61278 2.1881 9.29464 4.07181 9.29464 6.39163C9.30776 9.49826 6.55217 12.2878 5.54468 13.2027C4.53781 12.2871 1.78159 9.49686 1.79472 6.38813C1.79472 4.07181 3.47658 2.1881 5.54468 2.1881Z" fill="#FF6514"/>
</svg>
