<svg width="13" height="12" viewBox="0 0 13 12" fill="none" xmlns="http://www.w3.org/2000/svg">
<path d="M12.203 8.80678L10.5249 7.13215C9.92553 6.53406 8.90664 6.77332 8.66691 7.55081C8.4871 8.0891 7.88776 8.38815 7.34835 8.26851C6.14967 7.96946 4.53144 6.41445 4.23177 5.15847C4.05197 4.62017 4.41157 4.02209 4.95098 3.84269C5.73013 3.60345 5.96986 2.58671 5.37052 1.98863L3.69236 0.313994C3.21289 -0.104665 2.49368 -0.104665 2.07414 0.313994L0.935386 1.45035C-0.203365 2.64652 1.05525 5.81636 3.87217 8.62735C6.68908 11.4383 9.86559 12.7542 11.0643 11.558L12.203 10.4216C12.6226 9.94314 12.6226 9.22544 12.203 8.80678Z" fill="white"/>
</svg>
