<svg width="17" height="13" viewBox="0 0 17 13" fill="none" xmlns="http://www.w3.org/2000/svg">
<path d="M15.4018 0.788086H1.68753C1.38443 0.788086 1.09374 0.914514 0.879413 1.13956C0.665086 1.3646 0.544678 1.66983 0.544678 1.98809V11.5881C0.544678 11.9063 0.665086 12.2116 0.879413 12.4366C1.09374 12.6617 1.38443 12.7881 1.68753 12.7881H15.4018C15.7049 12.7881 15.9956 12.6617 16.2099 12.4366C16.4243 12.2116 16.5447 11.9063 16.5447 11.5881V1.98809C16.5447 1.66983 16.4243 1.3646 16.2099 1.13956C15.9956 0.914514 15.7049 0.788086 15.4018 0.788086ZM14.1447 1.98809L8.54468 6.05609L2.94468 1.98809H14.1447ZM1.68753 11.5881V2.53409L8.21896 7.28009C8.31462 7.34976 8.42826 7.3871 8.54468 7.3871C8.6611 7.3871 8.77474 7.34976 8.87039 7.28009L15.4018 2.53409V11.5881H1.68753Z" fill="#FF6514"/>
</svg>
