<svg width="13" height="13" viewBox="0 0 13 13" fill="none" xmlns="http://www.w3.org/2000/svg">
<path d="M12.23 9.59487L10.5518 7.92023C9.9525 7.32215 8.93362 7.56141 8.69388 8.33889C8.51408 8.87719 7.91474 9.17623 7.37533 9.05659C6.17664 8.75755 4.55842 7.20253 4.25875 5.94656C4.07895 5.40826 4.43855 4.81017 4.97796 4.63077C5.7571 4.39154 5.99684 3.3748 5.3975 2.77671L3.71934 1.10208C3.23987 0.683421 2.52065 0.683421 2.10111 1.10208L0.962364 2.23844C-0.176387 3.43461 1.08223 6.60445 3.89914 9.41544C6.71605 12.2264 9.89257 13.5422 11.0913 12.3461L12.23 11.2097C12.6496 10.7312 12.6496 10.0135 12.23 9.59487Z" fill="#FF6514"/>
</svg>
