<svg width="17" height="12" viewBox="0 0 17 12" fill="none" xmlns="http://www.w3.org/2000/svg">
<path d="M15.3748 0H1.66056C1.35745 0 1.06676 0.126428 0.852435 0.351472C0.638108 0.576515 0.5177 0.88174 0.5177 1.2V10.8C0.5177 11.1183 0.638108 11.4235 0.852435 11.6485C1.06676 11.8736 1.35745 12 1.66056 12H15.3748C15.6779 12 15.9686 11.8736 16.183 11.6485C16.3973 11.4235 16.5177 11.1183 16.5177 10.8V1.2C16.5177 0.88174 16.3973 0.576515 16.183 0.351472C15.9686 0.126428 15.6779 0 15.3748 0ZM14.1177 1.2L8.5177 5.268L2.9177 1.2H14.1177ZM1.66056 10.8V1.746L8.19199 6.492C8.28764 6.56168 8.40128 6.59901 8.5177 6.59901C8.63412 6.59901 8.74776 6.56168 8.84341 6.492L15.3748 1.746V10.8H1.66056Z" fill="white"/>
</svg>
